<?xml version="1.0" encoding="UTF-8"?><svg xmlns="http://www.w3.org/2000/svg" xmlns:xlink="http://www.w3.org/1999/xlink" fill-opacity="1" color-rendering="auto" color-interpolation="auto" text-rendering="auto" stroke="black" stroke-linecap="square" width="558" stroke-miterlimit="10" shape-rendering="auto" stroke-opacity="1" fill="black" stroke-dasharray="none" font-weight="normal" stroke-width="1" height="152" font-family="'Dialog'" font-style="normal" stroke-linejoin="miter" font-size="12px" stroke-dashoffset="0" image-rendering="auto">
  <!--Generated by ySVG 2.5-->
  <defs id="genericDefs"/>
  <g>
    <defs id="defs1">
      <clipPath clipPathUnits="userSpaceOnUse" id="clipPath1">
        <path d="M0 0 L558 0 L558 152 L0 152 L0 0 Z"/>
      </clipPath>
      <clipPath clipPathUnits="userSpaceOnUse" id="clipPath2">
        <path d="M-2508 -483 L-1950 -483 L-1950 -331 L-2508 -331 L-2508 -483 Z"/>
      </clipPath>
    </defs>
    <g text-rendering="geometricPrecision" shape-rendering="geometricPrecision" transform="translate(2508,483)">
      <rect x="-2508" width="558" height="152" y="-483" clip-path="url(#clipPath2)" stroke="none"/>
    </g>
    <g fill="rgb(102,0,0)" text-rendering="geometricPrecision" shape-rendering="geometricPrecision" transform="matrix(1,0,0,1,2508,483)" stroke="rgb(102,0,0)">
      <rect x="-2492.9141" y="-468" clip-path="url(#clipPath2)" width="125.8281" rx="4" ry="4" height="36" stroke="none"/>
    </g>
    <g stroke-linecap="butt" transform="matrix(1,0,0,1,2508,483)" fill="rgb(204,204,204)" text-rendering="geometricPrecision" shape-rendering="geometricPrecision" stroke="rgb(204,204,204)" stroke-width="2" stroke-miterlimit="1.45">
      <rect x="-2492.9141" y="-468" clip-path="url(#clipPath2)" fill="none" width="125.8281" rx="4" ry="4" height="36"/>
      <text x="-2480.9141" font-size="16px" y="-443.6484" clip-path="url(#clipPath2)" font-family="'Tahoma'" stroke="none" stroke-width="1" xml:space="preserve">MainController</text>
    </g>
    <g fill="rgb(0,102,0)" text-rendering="geometricPrecision" shape-rendering="geometricPrecision" transform="matrix(1,0,0,1,2508,483)" stroke="rgb(0,102,0)">
      <rect x="-2337.0859" y="-468" clip-path="url(#clipPath2)" width="165.7891" rx="4" ry="4" height="36" stroke="none"/>
    </g>
    <g stroke-linecap="butt" transform="matrix(1,0,0,1,2508,483)" fill="rgb(204,204,204)" text-rendering="geometricPrecision" shape-rendering="geometricPrecision" stroke="rgb(204,204,204)" stroke-width="2" stroke-miterlimit="1.45">
      <rect x="-2337.0859" y="-468" clip-path="url(#clipPath2)" fill="none" width="165.7891" rx="4" ry="4" height="36"/>
      <text x="-2325.0859" font-size="16px" y="-443.6484" clip-path="url(#clipPath2)" font-family="'Tahoma'" stroke="none" stroke-width="1" xml:space="preserve">CustomerRepository</text>
    </g>
    <g fill="rgb(51,51,51)" text-rendering="geometricPrecision" shape-rendering="geometricPrecision" transform="matrix(1,0,0,1,2508,483)" stroke="rgb(51,51,51)">
      <rect x="-2141.2969" y="-468" clip-path="url(#clipPath2)" width="54.9141" rx="4" ry="4" height="36" stroke="none"/>
    </g>
    <g stroke-linecap="butt" transform="matrix(1,0,0,1,2508,483)" fill="rgb(204,204,204)" text-rendering="geometricPrecision" shape-rendering="geometricPrecision" stroke="rgb(204,204,204)" stroke-width="2" stroke-miterlimit="1.45">
      <rect x="-2141.2969" y="-468" clip-path="url(#clipPath2)" fill="none" width="54.9141" rx="4" ry="4" height="36"/>
      <text x="-2129.2969" font-size="16px" y="-443.6484" clip-path="url(#clipPath2)" font-family="'Tahoma'" stroke="none" stroke-width="1" xml:space="preserve">crud</text>
    </g>
    <g fill="rgb(102,102,0)" text-rendering="geometricPrecision" shape-rendering="geometricPrecision" transform="matrix(1,0,0,1,2508,483)" stroke="rgb(102,102,0)">
      <rect x="-2056.3828" y="-468" clip-path="url(#clipPath2)" width="91.3359" rx="4" ry="4" height="36" stroke="none"/>
    </g>
    <g stroke-linecap="butt" transform="matrix(1,0,0,1,2508,483)" fill="rgb(204,204,204)" text-rendering="geometricPrecision" shape-rendering="geometricPrecision" stroke="rgb(204,204,204)" stroke-width="2" stroke-miterlimit="1.45">
      <rect x="-2056.3828" y="-468" clip-path="url(#clipPath2)" fill="none" width="91.3359" rx="4" ry="4" height="36"/>
      <text x="-2044.3828" font-size="16px" y="-443.6484" clip-path="url(#clipPath2)" font-family="'Tahoma'" stroke="none" stroke-width="1" xml:space="preserve">Customer</text>
    </g>
    <g fill="rgb(102,0,0)" text-rendering="geometricPrecision" shape-rendering="geometricPrecision" transform="matrix(1,0,0,1,2508,483)" stroke="rgb(102,0,0)">
      <rect x="-2492.9141" y="-382" clip-path="url(#clipPath2)" width="92.5234" rx="4" ry="4" height="36" stroke="none"/>
    </g>
    <g stroke-linecap="butt" transform="matrix(1,0,0,1,2508,483)" fill="rgb(204,204,204)" text-rendering="geometricPrecision" shape-rendering="geometricPrecision" stroke="rgb(204,204,204)" stroke-width="2" stroke-miterlimit="1.45">
      <rect x="-2492.9141" y="-382" clip-path="url(#clipPath2)" fill="none" width="92.5234" rx="4" ry="4" height="36"/>
      <text x="-2480.9141" font-size="16px" y="-357.6484" clip-path="url(#clipPath2)" font-family="'Tahoma'" stroke="none" stroke-width="1" xml:space="preserve">Controller</text>
    </g>
    <g fill="rgb(0,102,0)" text-rendering="geometricPrecision" shape-rendering="geometricPrecision" transform="matrix(1,0,0,1,2508,483)" stroke="rgb(0,102,0)">
      <rect x="-2390.3906" y="-382" clip-path="url(#clipPath2)" width="98.4531" rx="4" ry="4" height="36" stroke="none"/>
    </g>
    <g stroke-linecap="butt" transform="matrix(1,0,0,1,2508,483)" fill="rgb(204,204,204)" text-rendering="geometricPrecision" shape-rendering="geometricPrecision" stroke="rgb(204,204,204)" stroke-width="2" stroke-miterlimit="1.45">
      <rect x="-2390.3906" y="-382" clip-path="url(#clipPath2)" fill="none" width="98.4531" rx="4" ry="4" height="36"/>
      <text x="-2378.3906" font-size="16px" y="-357.6484" clip-path="url(#clipPath2)" font-family="'Tahoma'" stroke="none" stroke-width="1" xml:space="preserve">Repository</text>
    </g>
    <g fill="rgb(51,51,51)" text-rendering="geometricPrecision" shape-rendering="geometricPrecision" transform="matrix(1,0,0,1,2508,483)" stroke="rgb(51,51,51)">
      <rect x="-2281.9375" y="-382" clip-path="url(#clipPath2)" width="89.8047" rx="4" ry="4" height="36" stroke="none"/>
    </g>
    <g stroke-linecap="butt" transform="matrix(1,0,0,1,2508,483)" fill="rgb(204,204,204)" text-rendering="geometricPrecision" shape-rendering="geometricPrecision" stroke="rgb(204,204,204)" stroke-width="2" stroke-miterlimit="1.45">
      <rect x="-2281.9375" y="-382" clip-path="url(#clipPath2)" fill="none" width="89.8047" rx="4" ry="4" height="36"/>
      <text x="-2269.9375" font-size="16px" y="-357.6484" clip-path="url(#clipPath2)" font-family="'Tahoma'" stroke="none" stroke-width="1" xml:space="preserve">Database</text>
    </g>
    <g fill="rgb(102,102,0)" text-rendering="geometricPrecision" shape-rendering="geometricPrecision" transform="matrix(1,0,0,1,2508,483)" stroke="rgb(102,102,0)">
      <rect x="-2182.1328" y="-382" clip-path="url(#clipPath2)" width="65.9375" rx="4" ry="4" height="36" stroke="none"/>
    </g>
    <g stroke-linecap="butt" transform="matrix(1,0,0,1,2508,483)" fill="rgb(204,204,204)" text-rendering="geometricPrecision" shape-rendering="geometricPrecision" stroke="rgb(204,204,204)" stroke-width="2" stroke-miterlimit="1.45">
      <rect x="-2182.1328" y="-382" clip-path="url(#clipPath2)" fill="none" width="65.9375" rx="4" ry="4" height="36"/>
      <text x="-2170.1328" font-size="16px" y="-357.6484" clip-path="url(#clipPath2)" font-family="'Tahoma'" stroke="none" stroke-width="1" xml:space="preserve">Model</text>
      <path fill="none" d="M-2337.0737 -450 L-2358.0662 -450" clip-path="url(#clipPath2)"/>
      <path d="M-2367.0662 -450 L-2353.5662 -444.375 L-2356.9412 -450 L-2353.5662 -455.625 Z" clip-path="url(#clipPath2)" stroke="none"/>
      <path fill="none" d="M-2141.2866 -450 L-2162.3044 -450" clip-path="url(#clipPath2)"/>
      <path d="M-2171.3044 -450 L-2157.8044 -444.375 L-2161.1794 -450 L-2157.8044 -455.625 Z" clip-path="url(#clipPath2)" stroke="none"/>
      <path fill="none" d="M-2056.3608 -450 L-2077.3633 -450" clip-path="url(#clipPath2)"/>
      <path d="M-2086.3633 -450 L-2072.8633 -444.375 L-2076.2383 -450 L-2072.8633 -455.625 Z" clip-path="url(#clipPath2)" stroke="none"/>
    </g>
  </g>
</svg>
