<?xml version="1.0" encoding="UTF-8"?><svg xmlns="http://www.w3.org/2000/svg" xmlns:xlink="http://www.w3.org/1999/xlink" fill-opacity="1" color-rendering="auto" color-interpolation="auto" text-rendering="auto" stroke="black" stroke-linecap="square" width="813" stroke-miterlimit="10" shape-rendering="auto" stroke-opacity="1" fill="black" stroke-dasharray="none" font-weight="normal" stroke-width="1" height="162" font-family="'Dialog'" font-style="normal" stroke-linejoin="miter" font-size="12px" stroke-dashoffset="0" image-rendering="auto">
  <!--Generated by ySVG 2.5-->
  <defs id="genericDefs"/>
  <g>
    <defs id="defs1">
      <clipPath clipPathUnits="userSpaceOnUse" id="clipPath1">
        <path d="M0 0 L813 0 L813 162 L0 162 L0 0 Z"/>
      </clipPath>
      <clipPath clipPathUnits="userSpaceOnUse" id="clipPath2">
        <path d="M-2788 -483 L-1975 -483 L-1975 -321 L-2788 -321 L-2788 -483 Z"/>
      </clipPath>
    </defs>
    <g text-rendering="geometricPrecision" shape-rendering="geometricPrecision" transform="translate(2788,483)">
      <rect x="-2788" width="813" height="162" y="-483" clip-path="url(#clipPath2)" stroke="none"/>
    </g>
    <g fill="rgb(102,0,0)" text-rendering="geometricPrecision" shape-rendering="geometricPrecision" transform="matrix(1,0,0,1,2788,483)" stroke="rgb(102,0,0)">
      <rect x="-2548.7227" y="-468" clip-path="url(#clipPath2)" width="125.8281" rx="4" ry="4" height="36" stroke="none"/>
    </g>
    <g stroke-linecap="butt" transform="matrix(1,0,0,1,2788,483)" fill="rgb(204,204,204)" text-rendering="geometricPrecision" shape-rendering="geometricPrecision" stroke="rgb(204,204,204)" stroke-width="2" stroke-miterlimit="1.45">
      <rect x="-2548.7227" y="-468" clip-path="url(#clipPath2)" fill="none" width="125.8281" rx="4" ry="4" height="36"/>
      <text x="-2536.7227" font-size="16px" y="-443.6484" clip-path="url(#clipPath2)" font-family="'Tahoma'" stroke="none" stroke-width="1" xml:space="preserve">MainController</text>
    </g>
    <g fill="rgb(0,102,0)" text-rendering="geometricPrecision" shape-rendering="geometricPrecision" transform="matrix(1,0,0,1,2788,483)" stroke="rgb(0,102,0)">
      <rect x="-2382.8945" y="-468" clip-path="url(#clipPath2)" width="165.7891" rx="4" ry="4" height="36" stroke="none"/>
    </g>
    <g stroke-linecap="butt" transform="matrix(1,0,0,1,2788,483)" fill="rgb(204,204,204)" text-rendering="geometricPrecision" shape-rendering="geometricPrecision" stroke="rgb(204,204,204)" stroke-width="2" stroke-miterlimit="1.45">
      <rect x="-2382.8945" y="-468" clip-path="url(#clipPath2)" fill="none" width="165.7891" rx="4" ry="4" height="36"/>
      <text x="-2370.8945" font-size="16px" y="-443.6484" clip-path="url(#clipPath2)" font-family="'Tahoma'" stroke="none" stroke-width="1" xml:space="preserve">CustomerRepository</text>
    </g>
    <g fill="rgb(51,51,51)" text-rendering="geometricPrecision" shape-rendering="geometricPrecision" transform="matrix(1,0,0,1,2788,483)" stroke="rgb(51,51,51)">
      <rect x="-2045.7695" y="-468" clip-path="url(#clipPath2)" width="54.9141" rx="4" ry="4" height="36" stroke="none"/>
    </g>
    <g stroke-linecap="butt" transform="matrix(1,0,0,1,2788,483)" fill="rgb(204,204,204)" text-rendering="geometricPrecision" shape-rendering="geometricPrecision" stroke="rgb(204,204,204)" stroke-width="2" stroke-miterlimit="1.45">
      <rect x="-2045.7695" y="-468" clip-path="url(#clipPath2)" fill="none" width="54.9141" rx="4" ry="4" height="36"/>
      <text x="-2033.7695" font-size="16px" y="-443.6484" clip-path="url(#clipPath2)" font-family="'Tahoma'" stroke="none" stroke-width="1" xml:space="preserve">crud</text>
    </g>
    <g fill="rgb(102,102,0)" text-rendering="geometricPrecision" shape-rendering="geometricPrecision" transform="matrix(1,0,0,1,2788,483)" stroke="rgb(102,102,0)">
      <rect x="-2177.1055" y="-468" clip-path="url(#clipPath2)" width="91.3359" rx="4" ry="4" height="36" stroke="none"/>
    </g>
    <g stroke-linecap="butt" transform="matrix(1,0,0,1,2788,483)" fill="rgb(204,204,204)" text-rendering="geometricPrecision" shape-rendering="geometricPrecision" stroke="rgb(204,204,204)" stroke-width="2" stroke-miterlimit="1.45">
      <rect x="-2177.1055" y="-468" clip-path="url(#clipPath2)" fill="none" width="91.3359" rx="4" ry="4" height="36"/>
      <text x="-2165.1055" font-size="16px" y="-443.6484" clip-path="url(#clipPath2)" font-family="'Tahoma'" stroke="none" stroke-width="1" xml:space="preserve">Customer</text>
    </g>
    <g fill="rgb(51,0,102)" text-rendering="geometricPrecision" shape-rendering="geometricPrecision" transform="matrix(1,0,0,1,2788,483)" stroke="rgb(51,0,102)">
      <rect x="-2685.2148" y="-468" clip-path="url(#clipPath2)" width="96.4922" rx="4" ry="4" height="36" stroke="none"/>
    </g>
    <g stroke-linecap="butt" transform="matrix(1,0,0,1,2788,483)" fill="rgb(204,204,204)" text-rendering="geometricPrecision" shape-rendering="geometricPrecision" stroke="rgb(204,204,204)" stroke-width="2" stroke-miterlimit="1.45">
      <rect x="-2685.2148" y="-468" clip-path="url(#clipPath2)" fill="none" width="96.4922" rx="4" ry="4" height="36"/>
      <text x="-2673.2148" font-size="16px" y="-443.6484" clip-path="url(#clipPath2)" font-family="'Tahoma'" stroke="none" stroke-width="1" xml:space="preserve">MvcConfig</text>
    </g>
    <g fill="rgb(51,102,0)" text-rendering="geometricPrecision" shape-rendering="geometricPrecision" transform="matrix(1,0,0,1,2788,483)" stroke="rgb(51,102,0)">
      <rect x="-2772.8008" y="-468" clip-path="url(#clipPath2)" width="47.5859" rx="4" ry="4" height="36" stroke="none"/>
    </g>
    <g stroke-linecap="butt" transform="matrix(1,0,0,1,2788,483)" fill="rgb(204,204,204)" text-rendering="geometricPrecision" shape-rendering="geometricPrecision" stroke="rgb(204,204,204)" stroke-width="2" stroke-miterlimit="1.45">
      <rect x="-2772.8008" y="-468" clip-path="url(#clipPath2)" fill="none" width="47.5859" rx="4" ry="4" height="36"/>
      <text x="-2760.8008" font-size="16px" y="-443.6484" clip-path="url(#clipPath2)" font-family="'Tahoma'" stroke="none" stroke-width="1" xml:space="preserve">/**</text>
    </g>
    <g fill="rgb(51,102,0)" text-rendering="geometricPrecision" shape-rendering="geometricPrecision" transform="matrix(1,0,0,1,2788,483)" stroke="rgb(51,102,0)">
      <rect x="-2772.8008" y="-372" clip-path="url(#clipPath2)" width="86.2031" rx="4" ry="4" height="36" stroke="none"/>
    </g>
    <g stroke-linecap="butt" transform="matrix(1,0,0,1,2788,483)" fill="rgb(204,204,204)" text-rendering="geometricPrecision" shape-rendering="geometricPrecision" stroke="rgb(204,204,204)" stroke-width="2" stroke-miterlimit="1.45">
      <rect x="-2772.8008" y="-372" clip-path="url(#clipPath2)" fill="none" width="86.2031" rx="4" ry="4" height="36"/>
      <text x="-2760.8008" font-size="16px" y="-347.6484" clip-path="url(#clipPath2)" font-family="'Tahoma'" stroke="none" stroke-width="1" xml:space="preserve">Endpoint</text>
    </g>
    <g fill="rgb(51,0,102)" text-rendering="geometricPrecision" shape-rendering="geometricPrecision" transform="matrix(1,0,0,1,2788,483)" stroke="rgb(51,0,102)">
      <rect x="-2676.5977" y="-372" clip-path="url(#clipPath2)" width="68.8125" rx="4" ry="4" height="36" stroke="none"/>
    </g>
    <g stroke-linecap="butt" transform="matrix(1,0,0,1,2788,483)" fill="rgb(204,204,204)" text-rendering="geometricPrecision" shape-rendering="geometricPrecision" stroke="rgb(204,204,204)" stroke-width="2" stroke-miterlimit="1.45">
      <rect x="-2676.5977" y="-372" clip-path="url(#clipPath2)" fill="none" width="68.8125" rx="4" ry="4" height="36"/>
      <text x="-2664.5977" font-size="16px" y="-347.6484" clip-path="url(#clipPath2)" font-family="'Tahoma'" stroke="none" stroke-width="1" xml:space="preserve">Config</text>
    </g>
    <g fill="rgb(102,102,0)" text-rendering="geometricPrecision" shape-rendering="geometricPrecision" transform="matrix(1,0,0,1,2788,483)" stroke="rgb(102,102,0)">
      <rect x="-2386.8086" y="-372" clip-path="url(#clipPath2)" width="65.9375" rx="4" ry="4" height="36" stroke="none"/>
    </g>
    <g stroke-linecap="butt" transform="matrix(1,0,0,1,2788,483)" fill="rgb(204,204,204)" text-rendering="geometricPrecision" shape-rendering="geometricPrecision" stroke="rgb(204,204,204)" stroke-width="2" stroke-miterlimit="1.45">
      <rect x="-2386.8086" y="-372" clip-path="url(#clipPath2)" fill="none" width="65.9375" rx="4" ry="4" height="36"/>
      <text x="-2374.8086" font-size="16px" y="-347.6484" clip-path="url(#clipPath2)" font-family="'Tahoma'" stroke="none" stroke-width="1" xml:space="preserve">Model</text>
    </g>
    <g fill="rgb(51,51,51)" text-rendering="geometricPrecision" shape-rendering="geometricPrecision" transform="matrix(1,0,0,1,2788,483)" stroke="rgb(51,51,51)">
      <rect x="-2310.8711" y="-372" clip-path="url(#clipPath2)" width="89.8047" rx="4" ry="4" height="36" stroke="none"/>
    </g>
    <g stroke-linecap="butt" transform="matrix(1,0,0,1,2788,483)" fill="rgb(204,204,204)" text-rendering="geometricPrecision" shape-rendering="geometricPrecision" stroke="rgb(204,204,204)" stroke-width="2" stroke-miterlimit="1.45">
      <rect x="-2310.8711" y="-372" clip-path="url(#clipPath2)" fill="none" width="89.8047" rx="4" ry="4" height="36"/>
      <text x="-2298.8711" font-size="16px" y="-347.6484" clip-path="url(#clipPath2)" font-family="'Tahoma'" stroke="none" stroke-width="1" xml:space="preserve">Database</text>
    </g>
    <g fill="rgb(0,102,0)" text-rendering="geometricPrecision" shape-rendering="geometricPrecision" transform="matrix(1,0,0,1,2788,483)" stroke="rgb(0,102,0)">
      <rect x="-2495.2617" y="-372" clip-path="url(#clipPath2)" width="98.4531" rx="4" ry="4" height="36" stroke="none"/>
    </g>
    <g stroke-linecap="butt" transform="matrix(1,0,0,1,2788,483)" fill="rgb(204,204,204)" text-rendering="geometricPrecision" shape-rendering="geometricPrecision" stroke="rgb(204,204,204)" stroke-width="2" stroke-miterlimit="1.45">
      <rect x="-2495.2617" y="-372" clip-path="url(#clipPath2)" fill="none" width="98.4531" rx="4" ry="4" height="36"/>
      <text x="-2483.2617" font-size="16px" y="-347.6484" clip-path="url(#clipPath2)" font-family="'Tahoma'" stroke="none" stroke-width="1" xml:space="preserve">Repository</text>
    </g>
    <g fill="rgb(102,0,0)" text-rendering="geometricPrecision" shape-rendering="geometricPrecision" transform="matrix(1,0,0,1,2788,483)" stroke="rgb(102,0,0)">
      <rect x="-2597.7852" y="-372" clip-path="url(#clipPath2)" width="92.5234" rx="4" ry="4" height="36" stroke="none"/>
    </g>
    <g stroke-linecap="butt" transform="matrix(1,0,0,1,2788,483)" fill="rgb(204,204,204)" text-rendering="geometricPrecision" shape-rendering="geometricPrecision" stroke="rgb(204,204,204)" stroke-width="2" stroke-miterlimit="1.45">
      <rect x="-2597.7852" y="-372" clip-path="url(#clipPath2)" fill="none" width="92.5234" rx="4" ry="4" height="36"/>
      <text x="-2585.7852" font-size="16px" y="-347.6484" clip-path="url(#clipPath2)" font-family="'Tahoma'" stroke="none" stroke-width="1" xml:space="preserve">Controller</text>
      <path fill="none" d="M-2382.8789 -450 L-2413.9099 -450" clip-path="url(#clipPath2)"/>
      <path d="M-2422.9099 -450 L-2409.4099 -444.375 L-2412.7849 -450 L-2409.4099 -455.625 Z" clip-path="url(#clipPath2)" stroke="none"/>
      <path fill="none" d="M-2045.7928 -450 L-2076.7297 -450" clip-path="url(#clipPath2)"/>
      <path d="M-2085.7297 -450 L-2072.2297 -444.375 L-2075.6047 -450 L-2072.2297 -455.625 Z" clip-path="url(#clipPath2)" stroke="none"/>
      <path fill="none" d="M-2177.0762 -450 L-2208.0803 -450" clip-path="url(#clipPath2)"/>
      <path d="M-2217.0803 -450 L-2203.5803 -444.375 L-2206.9553 -450 L-2203.5803 -455.625 Z" clip-path="url(#clipPath2)" stroke="none"/>
      <path fill="none" d="M-2548.7305 -450 L-2579.7566 -450" clip-path="url(#clipPath2)"/>
      <path d="M-2588.7566 -450 L-2575.2566 -444.375 L-2578.6316 -450 L-2575.2566 -455.625 Z" clip-path="url(#clipPath2)" stroke="none"/>
      <path fill="none" d="M-2685.1926 -450 L-2716.2329 -450" clip-path="url(#clipPath2)"/>
      <path d="M-2725.2329 -450 L-2711.7329 -444.375 L-2715.1079 -450 L-2711.7329 -455.625 Z" clip-path="url(#clipPath2)" stroke="none"/>
    </g>
  </g>
</svg>
